<svg xmlns="http://www.w3.org/2000/svg" width="131" height="40" fill="none"><g clip-path="url(#a)"><path fill="#fff" d="m130.941 0-1.831 2.142-1.843 2.16h-3.826L127.114 0zM55.214 6.008h4.273l1.198 2.779 2.179-2.779h4.929l-5.315 6.774 2.6 5.797-4.192.089-1.086-2.424-1.827 2.335h-4.891l4.897-6.399zM73.585 9.87h-4.798Q69.7 5.65 76.56 5.649q3.118 0 4.306.768t1.188 2.303q0 .816-.288 2.135l-1.248 5.878c-.08.32-.352 1.847-.352 1.847h-4.542l.048-1.343q-2.16 1.703-5.085 1.703-1.656 0-2.711-.744-1.056-.743-1.056-2.159 0-1.583.912-2.698.91-1.116 2.159-1.608 1.247-.492 2.759-.636 1.871-.168 2.854-.42t1.26-.516.276-.72q0-.79-1.44-.791-1.606 0-2.014 1.223m2.735 3.144a10 10 0 0 1-2.111.575q-2.136.36-2.136 1.68 0 .336.337.588.335.252 1.031.251 1.248 0 1.895-.779.648-.78.984-2.315M84.9 6.008h13.674l-2.686 12.57h-4.99l1.895-8.924h-3.695l-1.895 8.925h-4.99zM121.292 6.008l-1.464 6.885 5.734-6.885h5.014l-2.687 12.57h-4.798l1.415-6.644-5.709 6.645h-4.99l2.686-12.571h4.799M67.59 34.173l2.687-12.571h7.628q4.63 0 4.63 2.519 0 1.391-.947 2.315-.948.923-2.148 1.067 2.351.576 2.352 2.351 0 1.872-1.607 3.095-1.608 1.224-4.486 1.224zm5.877-5.086-.455 2.207h1.87q1.056 0 1.584-.264.528-.263.528-1.104 0-.455-.372-.648-.372-.192-1.283-.192zm.984-4.606-.432 2.063h1.871q.888 0 1.32-.288t.432-1.032q0-.384-.276-.564t-1.044-.18zM84.26 21.602h13.675l-.792 3.646H92.8l-1.895 8.924h-4.99l1.895-8.924h-4.342zM105.781 21.238q2.832 0 4.391 1.32t1.559 3.623a8.3 8.3 0 0 1-.54 2.926 9.2 9.2 0 0 1-1.571 2.675q-1.032 1.236-2.759 1.991t-3.886.756q-2.71 0-4.33-1.26-1.62-1.258-1.62-3.634 0-2.135.96-4.007.96-1.87 2.999-3.13 2.038-1.26 4.797-1.26m-.647 3.359q-1.008 0-1.739.816a4.6 4.6 0 0 0-1.02 1.822 7 7 0 0 0-.288 1.944q0 1.991 1.608 1.991.864 0 1.499-.564.636-.563.936-1.38.3-.813.432-1.463.131-.648.132-1.079 0-.96-.408-1.523-.408-.564-1.151-.564zM105.163 9.87h-4.798q.912-4.221 7.773-4.222 3.118 0 4.306.768t1.188 2.303q0 .816-.288 2.135l-1.248 5.878c-.08.32-.352 1.847-.352 1.847h-4.542l.048-1.343q-2.159 1.703-5.085 1.703-1.656 0-2.711-.744-1.056-.743-1.056-2.159 0-1.583.912-2.698.91-1.116 2.159-1.608 1.247-.492 2.759-.636 1.871-.168 2.855-.42.983-.252 1.259-.516.276-.263.276-.72 0-.79-1.439-.791-1.607 0-2.015 1.223zm2.735 3.144a9.8 9.8 0 0 1-2.111.575q-2.135.36-2.135 1.68 0 .336.336.588t1.032.251q1.247 0 1.895-.779.648-.78.983-2.315M58.82 25.46h-4.798q.91-4.221 7.772-4.222 3.12 0 4.307.768t1.187 2.303q0 .816-.288 2.135l-1.247 5.878c-.08.32-.353 1.847-.353 1.847h-4.542l.049-1.343q-2.16 1.704-5.086 1.703-1.657 0-2.71-.744-1.057-.743-1.056-2.159 0-1.583.911-2.699.912-1.115 2.16-1.607 1.245-.492 2.758-.636 1.872-.168 2.855-.42t1.26-.516q.275-.263.275-.72 0-.791-1.439-.792-1.607 0-2.015 1.224m2.734 3.143a10 10 0 0 1-2.11.576q-2.136.36-2.136 1.68 0 .336.336.588.336.25 1.032.251 1.248 0 1.895-.78.648-.778.983-2.314"/><path fill="#FF4800" d="M37.232 5.996 24.136 21.331l-6.828 7.996-8.73 10.222-8.576.093 17.306-20.83 6.828-7.996 4.243-4.968h8.679zM48.392 5.917h.235v2.478l-.235.275-6.594 7.722-4.816 5.638-5.83 6.828-4.728 5.536h-8.98l6.694-7.839L41.822 5.848h6.57z"/><path fill="#FF4800" d="M24.137 5.914H17.31v28.477h6.828zM48.625 5.848h-6.83v28.546h6.83z"/><path fill="#FF4800" d="M46.393 22.031H30.66v6.83h15.733zM35.7 30.996l-1.504 1.76-1.515 1.775h-3.144l3.018-3.535z"/></g><defs><clipPath id="a"><path fill="#fff" d="M0 0h130.94v39.642H0z"/></clipPath></defs></svg>